<?xml version="1.0" encoding="UTF-8" standalone="no"?> <svg xmlns="http://www.w3.org/2000/svg" xmlns:xlink="http://www.w3.org/1999/xlink" height="436px" preserveAspectRatio="none" style="width:402px;height:436px;" version="1.1" viewBox="0 0 402 436" width="402px" zoomAndPan="magnify"><defs><filter height="300%" id="f1gvfu29g69fgo" width="300%" x="-1" y="-1"><feGaussianBlur result="blurOut" stdDeviation="2.0"></feGaussianBlur><feColorMatrix in="blurOut" result="blurOut2" type="matrix" values="0 0 0 0 0 0 0 0 0 0 0 0 0 0 0 0 0 0 .4 0"></feColorMatrix><feOffset dx="4.0" dy="4.0" in="blurOut2" result="blurOut3"></feOffset><feBlend in="SourceGraphic" in2="blurOut3" mode="normal"></feBlend></filter></defs><g><rect fill="#FFFFFF" filter="url(#f1gvfu29g69fgo)" height="313.0625" style="stroke:#A80036;stroke-width:1.0;" width="10" x="15" y="98.2969"></rect><rect fill="#FFFFFF" filter="url(#f1gvfu29g69fgo)" height="291.9297" style="stroke:#A80036;stroke-width:1.0;" width="10" x="104" y="119.4297"></rect><rect fill="#FFFFFF" filter="url(#f1gvfu29g69fgo)" height="262.7969" style="stroke:#A80036;stroke-width:1.0;" width="10" x="216" y="148.5625"></rect><rect fill="#FFFFFF" filter="url(#f1gvfu29g69fgo)" height="28" style="stroke:#A80036;stroke-width:1.0;" width="10" x="221" y="185.6953"></rect><rect fill="#FFFFFF" filter="url(#f1gvfu29g69fgo)" height="28" style="stroke:#A80036;stroke-width:1.0;" width="10" x="221" y="340.2266"></rect><rect fill="#FFFFFF" filter="url(#f1gvfu29g69fgo)" height="29.1328" style="stroke:#A80036;stroke-width:1.0;" width="10" x="328" y="273.9609"></rect><rect fill="#FFFFFF" filter="url(#f1gvfu29g69fgo)" height="147.5313" style="stroke:#000000;stroke-width:2.0;" width="208" x="180" y="235.6953"></rect><line style="stroke:#A80036;stroke-width:1.0;stroke-dasharray:5.0,5.0;" x1="20" x2="20" y1="88.2969" y2="429.3594"></line><line style="stroke:#A80036;stroke-width:1.0;stroke-dasharray:5.0,5.0;" x1="108.5" x2="108.5" y1="88.2969" y2="429.3594"></line><line style="stroke:#A80036;stroke-width:1.0;stroke-dasharray:5.0,5.0;" x1="221" x2="221" y1="88.2969" y2="429.3594"></line><line style="stroke:#A80036;stroke-width:1.0;stroke-dasharray:5.0,5.0;" x1="333" x2="333" y1="88.2969" y2="429.3594"></line><text fill="#000000" font-family="sans-serif" font-size="14" lengthAdjust="spacingAndGlyphs" textLength="0" x="19" y="84.9951"></text><ellipse cx="20" cy="15" fill="#FEFECE" filter="url(#f1gvfu29g69fgo)" rx="8" ry="8" style="stroke:#A80036;stroke-width:2.0;"></ellipse><path d="M20,23 L20,50 M7,31 L33,31 M20,50 L7,65 M20,50 L33,65 " fill="none" filter="url(#f1gvfu29g69fgo)" style="stroke:#A80036;stroke-width:2.0;"></path><rect fill="#FEFECE" filter="url(#f1gvfu29g69fgo)" height="30.2969" style="stroke:#A80036;stroke-width:1.5;" width="51" x="81.5" y="53"></rect><text fill="#000000" font-family="sans-serif" font-size="14" lengthAdjust="spacingAndGlyphs" textLength="37" x="88.5" y="72.9951">Code</text><rect fill="#FEFECE" filter="url(#f1gvfu29g69fgo)" height="30.2969" style="stroke:#A80036;stroke-width:1.5;" width="58" x="190" y="53"></rect><text fill="#000000" font-family="sans-serif" font-size="14" lengthAdjust="spacingAndGlyphs" textLength="44" x="197" y="72.9951">Cache</text><rect fill="#FEFECE" filter="url(#f1gvfu29g69fgo)" height="30.2969" style="stroke:#A80036;stroke-width:1.5;" width="86" x="288" y="53"></rect><text fill="#000000" font-family="sans-serif" font-size="14" lengthAdjust="spacingAndGlyphs" textLength="72" x="295" y="72.9951">Datastore</text><rect fill="#FFFFFF" filter="url(#f1gvfu29g69fgo)" height="313.0625" style="stroke:#A80036;stroke-width:1.0;" width="10" x="15" y="98.2969"></rect><rect fill="#FFFFFF" filter="url(#f1gvfu29g69fgo)" height="291.9297" style="stroke:#A80036;stroke-width:1.0;" width="10" x="104" y="119.4297"></rect><rect fill="#FFFFFF" filter="url(#f1gvfu29g69fgo)" height="262.7969" style="stroke:#A80036;stroke-width:1.0;" width="10" x="216" y="148.5625"></rect><rect fill="#FFFFFF" filter="url(#f1gvfu29g69fgo)" height="28" style="stroke:#A80036;stroke-width:1.0;" width="10" x="221" y="185.6953"></rect><rect fill="#FFFFFF" filter="url(#f1gvfu29g69fgo)" height="28" style="stroke:#A80036;stroke-width:1.0;" width="10" x="221" y="340.2266"></rect><rect fill="#FFFFFF" filter="url(#f1gvfu29g69fgo)" height="29.1328" style="stroke:#A80036;stroke-width:1.0;" width="10" x="328" y="273.9609"></rect><polygon fill="#A80036" points="92,115.4297,102,119.4297,92,123.4297,96,119.4297" style="stroke:#A80036;stroke-width:1.0;"></polygon><line style="stroke:#A80036;stroke-width:1.0;" x1="25" x2="98" y1="119.4297" y2="119.4297"></line><text fill="#000000" font-family="sans-serif" font-size="13" lengthAdjust="spacingAndGlyphs" textLength="60" x="32" y="114.3638">get value</text><polygon fill="#A80036" points="204,144.5625,214,148.5625,204,152.5625,208,148.5625" style="stroke:#A80036;stroke-width:1.0;"></polygon><line style="stroke:#A80036;stroke-width:1.0;" x1="114" x2="210" y1="148.5625" y2="148.5625"></line><text fill="#000000" font-family="sans-serif" font-size="13" lengthAdjust="spacingAndGlyphs" textLength="60" x="121" y="143.4966">get value</text><line style="stroke:#A80036;stroke-width:1.0;" x1="231" x2="273" y1="177.6953" y2="177.6953"></line><line style="stroke:#A80036;stroke-width:1.0;" x1="273" x2="273" y1="177.6953" y2="190.6953"></line><line style="stroke:#A80036;stroke-width:1.0;" x1="232" x2="273" y1="190.6953" y2="190.6953"></line><polygon fill="#A80036" points="242,186.6953,232,190.6953,242,194.6953,238,190.6953" style="stroke:#A80036;stroke-width:1.0;"></polygon><text fill="#000000" font-family="sans-serif" font-size="13" lengthAdjust="spacingAndGlyphs" textLength="60" x="238" y="172.6294">get value</text><path d="M180,235.6953 L246,235.6953 L246,242.6953 L236,252.6953 L180,252.6953 L180,235.6953 " fill="#EEEEEE" style="stroke:#000000;stroke-width:1.0;"></path><rect fill="none" height="147.5313" style="stroke:#000000;stroke-width:2.0;" width="208" x="180" y="235.6953"></rect><text fill="#000000" font-family="sans-serif" font-size="13" font-weight="bold" lengthAdjust="spacingAndGlyphs" textLength="21" x="195" y="248.7622">alt</text><text fill="#000000" font-family="sans-serif" font-size="11" font-weight="bold" lengthAdjust="spacingAndGlyphs" textLength="88" x="261" y="247.9058">[value is null]</text><polygon fill="#A80036" points="316,269.9609,326,273.9609,316,277.9609,320,273.9609" style="stroke:#A80036;stroke-width:1.0;"></polygon><line style="stroke:#A80036;stroke-width:1.0;" x1="226" x2="322" y1="273.9609" y2="273.9609"></line><text fill="#000000" font-family="sans-serif" font-size="13" lengthAdjust="spacingAndGlyphs" textLength="60" x="233" y="268.895">get value</text><polygon fill="#A80036" points="237,299.0938,227,303.0938,237,307.0938,233,303.0938" style="stroke:#A80036;stroke-width:1.0;"></polygon><line style="stroke:#A80036;stroke-width:1.0;stroke-dasharray:2.0,2.0;" x1="231" x2="332" y1="303.0938" y2="303.0938"></line><text fill="#000000" font-family="sans-serif" font-size="13" lengthAdjust="spacingAndGlyphs" textLength="78" x="243" y="298.0278">return value</text><line style="stroke:#A80036;stroke-width:1.0;" x1="231" x2="273" y1="332.2266" y2="332.2266"></line><line style="stroke:#A80036;stroke-width:1.0;" x1="273" x2="273" y1="332.2266" y2="345.2266"></line><line style="stroke:#A80036;stroke-width:1.0;" x1="232" x2="273" y1="345.2266" y2="345.2266"></line><polygon fill="#A80036" points="242,341.2266,232,345.2266,242,349.2266,238,345.2266" style="stroke:#A80036;stroke-width:1.0;"></polygon><text fill="#000000" font-family="sans-serif" font-size="13" lengthAdjust="spacingAndGlyphs" textLength="59" x="238" y="327.1606">set value</text><polygon fill="#A80036" points="120,407.3594,110,411.3594,120,415.3594,116,411.3594" style="stroke:#A80036;stroke-width:1.0;"></polygon><line style="stroke:#A80036;stroke-width:1.0;stroke-dasharray:2.0,2.0;" x1="114" x2="220" y1="411.3594" y2="411.3594"></line><text fill="#000000" font-family="sans-serif" font-size="13" lengthAdjust="spacingAndGlyphs" textLength="78" x="126" y="406.2935">return value</text><!--MD5=[0686cbf3842b6c585745cee59fcc8de5] @startuml actor " " as user participant Code participant Cache participant Datastore activate user user -> Code : get value activate Code Code -> Cache : get value activate Cache Cache -> Cache: get value activate Cache deactivate Cache alt value is null Cache -> Datastore : get value activate Datastore Cache <- - Datastore : return value deactivate Datastore Cache -> Cache: set value activate Cache deactivate Cache end Code <- - Cache : return value deactivate Cache deactivate Code deactivate user hide footbox @enduml PlantUML version 1.2020.21beta3(Unknown compile time) (GPL source distribution) Java Runtime: Java(TM) SE Runtime Environment JVM: Java HotSpot(TM) 64-Bit Server VM Default Encoding: UTF-8 Language: en Country: US --></g></svg> 