<?xml version="1.0" encoding="UTF-8" standalone="no"?> <svg xmlns="http://www.w3.org/2000/svg" xmlns:xlink="http://www.w3.org/1999/xlink" height="495px" preserveAspectRatio="none" style="width:499px;height:495px;" version="1.1" viewBox="0 0 499 495" width="499px" zoomAndPan="magnify"><defs><filter height="300%" id="f19srk7ze3acp" width="300%" x="-1" y="-1"><feGaussianBlur result="blurOut" stdDeviation="2.0"></feGaussianBlur><feColorMatrix in="blurOut" result="blurOut2" type="matrix" values="0 0 0 0 0 0 0 0 0 0 0 0 0 0 0 0 0 0 .4 0"></feColorMatrix><feOffset dx="4.0" dy="4.0" in="blurOut2" result="blurOut3"></feOffset><feBlend in="SourceGraphic" in2="blurOut3" mode="normal"></feBlend></filter></defs><g><rect fill="#FFFFFF" filter="url(#f19srk7ze3acp)" height="192.5313" style="stroke:#A80036;stroke-width:1.0;" width="10" x="34" y="98.2969"></rect><rect fill="#FFFFFF" filter="url(#f19srk7ze3acp)" height="30" style="stroke:#A80036;stroke-width:1.0;" width="10" x="142" y="186.6953"></rect><rect fill="#FFFFFF" filter="url(#f19srk7ze3acp)" height="192.5313" style="stroke:#FFFFFF;stroke-width:1.0;" width="10" x="212" y="98.2969"></rect><line style="stroke:#A80036;stroke-width:1.0;" x1="212" x2="212" y1="98.2969" y2="290.8281"></line><line style="stroke:#A80036;stroke-width:1.0;" x1="222" x2="222" y1="98.2969" y2="290.8281"></line><line style="stroke:#A80036;stroke-width:1.0;" x1="212" x2="222" y1="98.2969" y2="98.2969"></line><rect fill="#FFFFFF" filter="url(#f19srk7ze3acp)" height="151.6641" style="stroke:#FFFFFF;stroke-width:1.0;" width="10" x="212" y="318.8281"></rect><line style="stroke:#A80036;stroke-width:1.0;" x1="212" x2="212" y1="318.8281" y2="470.4922"></line><line style="stroke:#A80036;stroke-width:1.0;" x1="222" x2="222" y1="318.8281" y2="470.4922"></line><line style="stroke:#A80036;stroke-width:1.0;" x1="212" x2="222" y1="470.4922" y2="470.4922"></line><rect fill="#FFFFFF" filter="url(#f19srk7ze3acp)" height="87.3984" style="stroke:#A80036;stroke-width:1.0;" width="10" x="324" y="383.0938"></rect><rect fill="#FFFFFF" filter="url(#f19srk7ze3acp)" height="30" style="stroke:#A80036;stroke-width:1.0;" width="10" x="436" y="245.8281"></rect><rect fill="#FFFFFF" filter="url(#f19srk7ze3acp)" height="29.1328" style="stroke:#A80036;stroke-width:1.0;" width="10" x="436" y="412.2266"></rect><rect fill="#FFFFFF" filter="url(#f19srk7ze3acp)" height="135.3984" style="stroke:#000000;stroke-width:2.0;" width="472" x="10" y="148.4297"></rect><line style="stroke:#A80036;stroke-width:1.0;" x1="39" x2="39" y1="88.2969" y2="290.8281"></line><line style="stroke:#A80036;stroke-width:1.0;stroke-dasharray:1.0,4.0;" x1="39" x2="39" y1="290.8281" y2="318.8281"></line><line style="stroke:#A80036;stroke-width:1.0;" x1="39" x2="39" y1="318.8281" y2="488.4922"></line><line style="stroke:#A80036;stroke-width:1.0;" x1="147" x2="147" y1="88.2969" y2="290.8281"></line><line style="stroke:#A80036;stroke-width:1.0;stroke-dasharray:1.0,4.0;" x1="147" x2="147" y1="290.8281" y2="318.8281"></line><line style="stroke:#A80036;stroke-width:1.0;" x1="147" x2="147" y1="318.8281" y2="488.4922"></line><line style="stroke:#A80036;stroke-width:1.0;" x1="217" x2="217" y1="88.2969" y2="290.8281"></line><line style="stroke:#A80036;stroke-width:1.0;stroke-dasharray:1.0,4.0;" x1="217" x2="217" y1="290.8281" y2="318.8281"></line><line style="stroke:#A80036;stroke-width:1.0;" x1="217" x2="217" y1="318.8281" y2="488.4922"></line><line style="stroke:#A80036;stroke-width:1.0;" x1="328.5" x2="328.5" y1="88.2969" y2="290.8281"></line><line style="stroke:#A80036;stroke-width:1.0;stroke-dasharray:1.0,4.0;" x1="328.5" x2="328.5" y1="290.8281" y2="318.8281"></line><line style="stroke:#A80036;stroke-width:1.0;" x1="328.5" x2="328.5" y1="318.8281" y2="488.4922"></line><line style="stroke:#A80036;stroke-width:1.0;" x1="441" x2="441" y1="88.2969" y2="290.8281"></line><line style="stroke:#A80036;stroke-width:1.0;stroke-dasharray:1.0,4.0;" x1="441" x2="441" y1="290.8281" y2="318.8281"></line><line style="stroke:#A80036;stroke-width:1.0;" x1="441" x2="441" y1="318.8281" y2="488.4922"></line><rect fill="#FEFECE" filter="url(#f19srk7ze3acp)" height="30.2969" style="stroke:#A80036;stroke-width:1.5;" width="34" x="20" y="53"></rect><text fill="#000000" font-family="sans-serif" font-size="14" lengthAdjust="spacingAndGlyphs" textLength="20" x="27" y="72.9951">Jet</text><rect fill="#FEFECE" filter="url(#f19srk7ze3acp)" height="30.2969" style="stroke:#A80036;stroke-width:1.5;" width="86" x="102" y="53"></rect><text fill="#000000" font-family="sans-serif" font-size="14" lengthAdjust="spacingAndGlyphs" textLength="72" x="109" y="72.9951">Datastore</text><text fill="#000000" font-family="sans-serif" font-size="14" lengthAdjust="spacingAndGlyphs" textLength="0" x="216" y="84.9951"></text><ellipse cx="217" cy="15" fill="#FEFECE" filter="url(#f19srk7ze3acp)" rx="8" ry="8" style="stroke:#A80036;stroke-width:2.0;"></ellipse><path d="M217,23 L217,50 M204,31 L230,31 M217,50 L204,65 M217,50 L230,65 " fill="none" filter="url(#f19srk7ze3acp)" style="stroke:#A80036;stroke-width:2.0;"></path><rect fill="#FEFECE" filter="url(#f19srk7ze3acp)" height="30.2969" style="stroke:#A80036;stroke-width:1.5;" width="51" x="301.5" y="53"></rect><text fill="#000000" font-family="sans-serif" font-size="14" lengthAdjust="spacingAndGlyphs" textLength="37" x="308.5" y="72.9951">Code</text><rect fill="#FEFECE" filter="url(#f19srk7ze3acp)" height="30.2969" style="stroke:#A80036;stroke-width:1.5;" width="58" x="410" y="53"></rect><text fill="#000000" font-family="sans-serif" font-size="14" lengthAdjust="spacingAndGlyphs" textLength="44" x="417" y="72.9951">Cache</text><rect fill="#FFFFFF" filter="url(#f19srk7ze3acp)" height="192.5313" style="stroke:#A80036;stroke-width:1.0;" width="10" x="34" y="98.2969"></rect><rect fill="#FFFFFF" filter="url(#f19srk7ze3acp)" height="30" style="stroke:#A80036;stroke-width:1.0;" width="10" x="142" y="186.6953"></rect><rect fill="#FFFFFF" filter="url(#f19srk7ze3acp)" height="192.5313" style="stroke:#FFFFFF;stroke-width:1.0;" width="10" x="212" y="98.2969"></rect><line style="stroke:#A80036;stroke-width:1.0;" x1="212" x2="212" y1="98.2969" y2="290.8281"></line><line style="stroke:#A80036;stroke-width:1.0;" x1="222" x2="222" y1="98.2969" y2="290.8281"></line><line style="stroke:#A80036;stroke-width:1.0;" x1="212" x2="222" y1="98.2969" y2="98.2969"></line><rect fill="#FFFFFF" filter="url(#f19srk7ze3acp)" height="151.6641" style="stroke:#FFFFFF;stroke-width:1.0;" width="10" x="212" y="318.8281"></rect><line style="stroke:#A80036;stroke-width:1.0;" x1="212" x2="212" y1="318.8281" y2="470.4922"></line><line style="stroke:#A80036;stroke-width:1.0;" x1="222" x2="222" y1="318.8281" y2="470.4922"></line><line style="stroke:#A80036;stroke-width:1.0;" x1="212" x2="222" y1="470.4922" y2="470.4922"></line><rect fill="#FFFFFF" filter="url(#f19srk7ze3acp)" height="87.3984" style="stroke:#A80036;stroke-width:1.0;" width="10" x="324" y="383.0938"></rect><rect fill="#FFFFFF" filter="url(#f19srk7ze3acp)" height="30" style="stroke:#A80036;stroke-width:1.0;" width="10" x="436" y="245.8281"></rect><rect fill="#FFFFFF" filter="url(#f19srk7ze3acp)" height="29.1328" style="stroke:#A80036;stroke-width:1.0;" width="10" x="436" y="412.2266"></rect><rect fill="#EEEEEE" filter="url(#f19srk7ze3acp)" height="3" style="stroke:#EEEEEE;stroke-width:1.0;" width="492" x="0" y="118.8633"></rect><line style="stroke:#000000;stroke-width:1.0;" x1="0" x2="492" y1="118.8633" y2="118.8633"></line><line style="stroke:#000000;stroke-width:1.0;" x1="0" x2="492" y1="121.8633" y2="121.8633"></line><rect fill="#EEEEEE" filter="url(#f19srk7ze3acp)" height="23.1328" style="stroke:#000000;stroke-width:2.0;" width="184" x="154" y="108.2969"></rect><text fill="#000000" font-family="sans-serif" font-size="13" font-weight="bold" lengthAdjust="spacingAndGlyphs" textLength="165" x="160" y="124.3638">Change-Data-Capture</text><path d="M10,148.4297 L88,148.4297 L88,155.4297 L78,165.4297 L10,165.4297 L10,148.4297 " fill="#EEEEEE" style="stroke:#000000;stroke-width:1.0;"></path><rect fill="none" height="135.3984" style="stroke:#000000;stroke-width:2.0;" width="472" x="10" y="148.4297"></rect><text fill="#000000" font-family="sans-serif" font-size="13" font-weight="bold" lengthAdjust="spacingAndGlyphs" textLength="33" x="25" y="161.4966">loop</text><polygon fill="#A80036" points="130,182.6953,140,186.6953,130,190.6953,134,186.6953" style="stroke:#A80036;stroke-width:1.0;"></polygon><line style="stroke:#A80036;stroke-width:1.0;" x1="44" x2="136" y1="186.6953" y2="186.6953"></line><text fill="#000000" font-family="sans-serif" font-size="13" lengthAdjust="spacingAndGlyphs" textLength="79" x="51" y="181.6294">get changes</text><polygon fill="#A80036" points="424,241.8281,434,245.8281,424,249.8281,428,245.8281" style="stroke:#A80036;stroke-width:1.0;"></polygon><line style="stroke:#A80036;stroke-width:1.0;" x1="44" x2="430" y1="245.8281" y2="245.8281"></line><text fill="#000000" font-family="sans-serif" font-size="13" lengthAdjust="spacingAndGlyphs" textLength="59" x="51" y="240.7622">set value</text><rect fill="#EEEEEE" filter="url(#f19srk7ze3acp)" height="3" style="stroke:#EEEEEE;stroke-width:1.0;" width="492" x="0" y="339.3945"></rect><line style="stroke:#000000;stroke-width:1.0;" x1="0" x2="492" y1="339.3945" y2="339.3945"></line><line style="stroke:#000000;stroke-width:1.0;" x1="0" x2="492" y1="342.3945" y2="342.3945"></line><rect fill="#EEEEEE" filter="url(#f19srk7ze3acp)" height="23.1328" style="stroke:#000000;stroke-width:2.0;" width="141" x="175.5" y="328.8281"></rect><text fill="#000000" font-family="sans-serif" font-size="13" font-weight="bold" lengthAdjust="spacingAndGlyphs" textLength="122" x="181.5" y="344.895">Application flow</text><polygon fill="#A80036" points="312,379.0938,322,383.0938,312,387.0938,316,383.0938" style="stroke:#A80036;stroke-width:1.0;"></polygon><line style="stroke:#A80036;stroke-width:1.0;" x1="222" x2="318" y1="383.0938" y2="383.0938"></line><text fill="#000000" font-family="sans-serif" font-size="13" lengthAdjust="spacingAndGlyphs" textLength="60" x="229" y="378.0278">get value</text><polygon fill="#A80036" points="424,408.2266,434,412.2266,424,416.2266,428,412.2266" style="stroke:#A80036;stroke-width:1.0;"></polygon><line style="stroke:#A80036;stroke-width:1.0;" x1="334" x2="430" y1="412.2266" y2="412.2266"></line><text fill="#000000" font-family="sans-serif" font-size="13" lengthAdjust="spacingAndGlyphs" textLength="60" x="341" y="407.1606">get value</text><polygon fill="#A80036" points="345,437.3594,335,441.3594,345,445.3594,341,441.3594" style="stroke:#A80036;stroke-width:1.0;"></polygon><line style="stroke:#A80036;stroke-width:1.0;stroke-dasharray:2.0,2.0;" x1="339" x2="440" y1="441.3594" y2="441.3594"></line><text fill="#000000" font-family="sans-serif" font-size="13" lengthAdjust="spacingAndGlyphs" textLength="78" x="351" y="436.2935">return value</text><polygon fill="#A80036" points="228,466.4922,218,470.4922,228,474.4922,224,470.4922" style="stroke:#A80036;stroke-width:1.0;"></polygon><line style="stroke:#A80036;stroke-width:1.0;stroke-dasharray:2.0,2.0;" x1="222" x2="328" y1="470.4922" y2="470.4922"></line><text fill="#000000" font-family="sans-serif" font-size="13" lengthAdjust="spacingAndGlyphs" textLength="78" x="234" y="465.4263">return value</text><!--MD5=[edfefce64b2c65034a38429867813fa8] @startuml participant Jet participant Datastore actor " " as user participant Code participant Cache activate Jet activate user == Change-Data-Capture == loop Jet -> Datastore: get changes activate Datastore deactivate Datastore Jet -> Cache: set value activate Cache deactivate Cache end deactivate Jet ... == Application flow == user -> Code : get value activate Code Code -> Cache : get value activate Cache Code <- - Cache : return value deactivate Cache user <- - Code : return value deactivate Code deactivate user hide footbox @enduml PlantUML version 1.2020.21beta3(Unknown compile time) (GPL source distribution) Java Runtime: Java(TM) SE Runtime Environment JVM: Java HotSpot(TM) 64-Bit Server VM Default Encoding: UTF-8 Language: en Country: US --></g></svg> 