<?xml version="1.0" encoding="UTF-8" standalone="no"?> <svg xmlns="http://www.w3.org/2000/svg" xmlns:xlink="http://www.w3.org/1999/xlink" height="380px" preserveAspectRatio="none" style="width:442px;height:380px;" version="1.1" viewBox="0 0 442 380" width="442px" zoomAndPan="magnify"><defs><filter height="300%" id="f1md76g5nsuyh5" width="300%" x="-1" y="-1"><feGaussianBlur result="blurOut" stdDeviation="2.0"></feGaussianBlur><feColorMatrix in="blurOut" result="blurOut2" type="matrix" values="0 0 0 0 0 0 0 0 0 0 0 0 0 0 0 0 0 0 .4 0"></feColorMatrix><feOffset dx="4.0" dy="4.0" in="blurOut2" result="blurOut3"></feOffset><feBlend in="SourceGraphic" in2="blurOut3" mode="normal"></feBlend></filter></defs><g><rect fill="#FFFFFF" filter="url(#f1md76g5nsuyh5)" height="257.0625" style="stroke:#A80036;stroke-width:1.0;" width="10" x="15" y="98.2969"></rect><rect fill="#FFFFFF" filter="url(#f1md76g5nsuyh5)" height="235.9297" style="stroke:#A80036;stroke-width:1.0;" width="10" x="127" y="119.4297"></rect><rect fill="#FFFFFF" filter="url(#f1md76g5nsuyh5)" height="29.1328" style="stroke:#A80036;stroke-width:1.0;" width="10" x="282" y="148.5625"></rect><rect fill="#FFFFFF" filter="url(#f1md76g5nsuyh5)" height="30" style="stroke:#A80036;stroke-width:1.0;" width="10" x="282" y="289.2266"></rect><rect fill="#FFFFFF" filter="url(#f1md76g5nsuyh5)" height="29.1328" style="stroke:#A80036;stroke-width:1.0;" width="10" x="368" y="230.9609"></rect><rect fill="#FFFFFF" filter="url(#f1md76g5nsuyh5)" height="134.5313" style="stroke:#000000;stroke-width:2.0;" width="333.5" x="94.5" y="192.6953"></rect><line style="stroke:#A80036;stroke-width:1.0;stroke-dasharray:5.0,5.0;" x1="20" x2="20" y1="88.2969" y2="373.3594"></line><line style="stroke:#A80036;stroke-width:1.0;stroke-dasharray:5.0,5.0;" x1="131.5" x2="131.5" y1="88.2969" y2="373.3594"></line><line style="stroke:#A80036;stroke-width:1.0;stroke-dasharray:5.0,5.0;" x1="287" x2="287" y1="88.2969" y2="373.3594"></line><line style="stroke:#A80036;stroke-width:1.0;stroke-dasharray:5.0,5.0;" x1="373" x2="373" y1="88.2969" y2="373.3594"></line><text fill="#000000" font-family="sans-serif" font-size="14" lengthAdjust="spacingAndGlyphs" textLength="0" x="19" y="84.9951"></text><ellipse cx="20" cy="15" fill="#FEFECE" filter="url(#f1md76g5nsuyh5)" rx="8" ry="8" style="stroke:#A80036;stroke-width:2.0;"></ellipse><path d="M20,23 L20,50 M7,31 L33,31 M20,50 L7,65 M20,50 L33,65 " fill="none" filter="url(#f1md76g5nsuyh5)" style="stroke:#A80036;stroke-width:2.0;"></path><rect fill="#FEFECE" filter="url(#f1md76g5nsuyh5)" height="30.2969" style="stroke:#A80036;stroke-width:1.5;" width="51" x="104.5" y="53"></rect><text fill="#000000" font-family="sans-serif" font-size="14" lengthAdjust="spacingAndGlyphs" textLength="37" x="111.5" y="72.9951">Code</text><rect fill="#FEFECE" filter="url(#f1md76g5nsuyh5)" height="30.2969" style="stroke:#A80036;stroke-width:1.5;" width="58" x="256" y="53"></rect><text fill="#000000" font-family="sans-serif" font-size="14" lengthAdjust="spacingAndGlyphs" textLength="44" x="263" y="72.9951">Cache</text><rect fill="#FEFECE" filter="url(#f1md76g5nsuyh5)" height="30.2969" style="stroke:#A80036;stroke-width:1.5;" width="86" x="328" y="53"></rect><text fill="#000000" font-family="sans-serif" font-size="14" lengthAdjust="spacingAndGlyphs" textLength="72" x="335" y="72.9951">Datastore</text><rect fill="#FFFFFF" filter="url(#f1md76g5nsuyh5)" height="257.0625" style="stroke:#A80036;stroke-width:1.0;" width="10" x="15" y="98.2969"></rect><rect fill="#FFFFFF" filter="url(#f1md76g5nsuyh5)" height="235.9297" style="stroke:#A80036;stroke-width:1.0;" width="10" x="127" y="119.4297"></rect><rect fill="#FFFFFF" filter="url(#f1md76g5nsuyh5)" height="29.1328" style="stroke:#A80036;stroke-width:1.0;" width="10" x="282" y="148.5625"></rect><rect fill="#FFFFFF" filter="url(#f1md76g5nsuyh5)" height="30" style="stroke:#A80036;stroke-width:1.0;" width="10" x="282" y="289.2266"></rect><rect fill="#FFFFFF" filter="url(#f1md76g5nsuyh5)" height="29.1328" style="stroke:#A80036;stroke-width:1.0;" width="10" x="368" y="230.9609"></rect><polygon fill="#A80036" points="115,115.4297,125,119.4297,115,123.4297,119,119.4297" style="stroke:#A80036;stroke-width:1.0;"></polygon><line style="stroke:#A80036;stroke-width:1.0;" x1="25" x2="121" y1="119.4297" y2="119.4297"></line><text fill="#000000" font-family="sans-serif" font-size="13" lengthAdjust="spacingAndGlyphs" textLength="60" x="32" y="114.3638">get value</text><polygon fill="#A80036" points="270,144.5625,280,148.5625,270,152.5625,274,148.5625" style="stroke:#A80036;stroke-width:1.0;"></polygon><line style="stroke:#A80036;stroke-width:1.0;" x1="137" x2="276" y1="148.5625" y2="148.5625"></line><text fill="#000000" font-family="sans-serif" font-size="13" lengthAdjust="spacingAndGlyphs" textLength="60" x="144" y="143.4966">get value</text><polygon fill="#A80036" points="148,173.6953,138,177.6953,148,181.6953,144,177.6953" style="stroke:#A80036;stroke-width:1.0;"></polygon><line style="stroke:#A80036;stroke-width:1.0;stroke-dasharray:2.0,2.0;" x1="142" x2="286" y1="177.6953" y2="177.6953"></line><text fill="#000000" font-family="sans-serif" font-size="13" lengthAdjust="spacingAndGlyphs" textLength="121" x="154" y="172.6294">return value or null</text><path d="M94.5,192.6953 L160.5,192.6953 L160.5,199.6953 L150.5,209.6953 L94.5,209.6953 L94.5,192.6953 " fill="#EEEEEE" style="stroke:#000000;stroke-width:1.0;"></path><rect fill="none" height="134.5313" style="stroke:#000000;stroke-width:2.0;" width="333.5" x="94.5" y="192.6953"></rect><text fill="#000000" font-family="sans-serif" font-size="13" font-weight="bold" lengthAdjust="spacingAndGlyphs" textLength="21" x="109.5" y="205.7622">alt</text><text fill="#000000" font-family="sans-serif" font-size="11" font-weight="bold" lengthAdjust="spacingAndGlyphs" textLength="88" x="175.5" y="204.9058">[value is null]</text><polygon fill="#A80036" points="356,226.9609,366,230.9609,356,234.9609,360,230.9609" style="stroke:#A80036;stroke-width:1.0;"></polygon><line style="stroke:#A80036;stroke-width:1.0;" x1="137" x2="362" y1="230.9609" y2="230.9609"></line><text fill="#000000" font-family="sans-serif" font-size="13" lengthAdjust="spacingAndGlyphs" textLength="60" x="144" y="225.895">get value</text><polygon fill="#A80036" points="148,256.0938,138,260.0938,148,264.0938,144,260.0938" style="stroke:#A80036;stroke-width:1.0;"></polygon><line style="stroke:#A80036;stroke-width:1.0;stroke-dasharray:2.0,2.0;" x1="142" x2="372" y1="260.0938" y2="260.0938"></line><text fill="#000000" font-family="sans-serif" font-size="13" lengthAdjust="spacingAndGlyphs" textLength="78" x="154" y="255.0278">return value</text><polygon fill="#A80036" points="270,285.2266,280,289.2266,270,293.2266,274,289.2266" style="stroke:#A80036;stroke-width:1.0;"></polygon><line style="stroke:#A80036;stroke-width:1.0;" x1="137" x2="276" y1="289.2266" y2="289.2266"></line><text fill="#000000" font-family="sans-serif" font-size="13" lengthAdjust="spacingAndGlyphs" textLength="59" x="144" y="284.1606">set value</text><polygon fill="#A80036" points="31,351.3594,21,355.3594,31,359.3594,27,355.3594" style="stroke:#A80036;stroke-width:1.0;"></polygon><line style="stroke:#A80036;stroke-width:1.0;stroke-dasharray:2.0,2.0;" x1="25" x2="131" y1="355.3594" y2="355.3594"></line><text fill="#000000" font-family="sans-serif" font-size="13" lengthAdjust="spacingAndGlyphs" textLength="78" x="37" y="350.2935">return value</text><!--MD5=[ee848d5f14619b4b519703816dea0aa9] @startuml actor " " as user participant Code participant Cache participant Datastore activate user user -> Code : get value activate Code Code -> Cache : get value activate Cache Code <- - Cache : return value or null deactivate Cache alt value is null Code -> Datastore : get value activate Datastore Code <- - Datastore : return value deactivate Datastore Code -> Cache: set value activate Cache deactivate Cache end user <- - Code : return value deactivate Code deactivate user hide footbox @enduml PlantUML version 1.2020.21beta3(Unknown compile time) (GPL source distribution) Java Runtime: Java(TM) SE Runtime Environment JVM: Java HotSpot(TM) 64-Bit Server VM Default Encoding: UTF-8 Language: en Country: US --></g></svg> 