<?xml version="1.0" encoding="UTF-8" standalone="no"?> <svg xmlns="http://www.w3.org/2000/svg" xmlns:xlink="http://www.w3.org/1999/xlink" height="232px" preserveAspectRatio="none" style="width:339px;height:232px;" version="1.1" viewBox="0 0 339 232" width="339px" zoomAndPan="magnify"><defs><filter height="300%" id="fjdat1mr0dn9m" width="300%" x="-1" y="-1"><feGaussianBlur result="blurOut" stdDeviation="2.0"></feGaussianBlur><feColorMatrix in="blurOut" result="blurOut2" type="matrix" values="0 0 0 0 0 0 0 0 0 0 0 0 0 0 0 0 0 0 .4 0"></feColorMatrix><feOffset dx="4.0" dy="4.0" in="blurOut2" result="blurOut3"></feOffset><feBlend in="SourceGraphic" in2="blurOut3" mode="normal"></feBlend></filter></defs><g><rect fill="#FFFFFF" filter="url(#fjdat1mr0dn9m)" height="109.3984" style="stroke:#A80036;stroke-width:1.0;" width="10" x="15" y="98.2969"></rect><rect fill="#FFFFFF" filter="url(#fjdat1mr0dn9m)" height="88.2656" style="stroke:#A80036;stroke-width:1.0;" width="10" x="103" y="119.4297"></rect><rect fill="#FFFFFF" filter="url(#fjdat1mr0dn9m)" height="59.1328" style="stroke:#A80036;stroke-width:1.0;" width="10" x="191" y="148.5625"></rect><rect fill="#FFFFFF" filter="url(#fjdat1mr0dn9m)" height="30" style="stroke:#A80036;stroke-width:1.0;" width="10" x="279" y="177.6953"></rect><line style="stroke:#A80036;stroke-width:1.0;stroke-dasharray:5.0,5.0;" x1="20" x2="20" y1="88.2969" y2="225.6953"></line><line style="stroke:#A80036;stroke-width:1.0;stroke-dasharray:5.0,5.0;" x1="107.5" x2="107.5" y1="88.2969" y2="225.6953"></line><line style="stroke:#A80036;stroke-width:1.0;stroke-dasharray:5.0,5.0;" x1="196" x2="196" y1="88.2969" y2="225.6953"></line><line style="stroke:#A80036;stroke-width:1.0;stroke-dasharray:5.0,5.0;" x1="284" x2="284" y1="88.2969" y2="225.6953"></line><text fill="#000000" font-family="sans-serif" font-size="14" lengthAdjust="spacingAndGlyphs" textLength="0" x="19" y="84.9951"></text><ellipse cx="20" cy="15" fill="#FEFECE" filter="url(#fjdat1mr0dn9m)" rx="8" ry="8" style="stroke:#A80036;stroke-width:2.0;"></ellipse><path d="M20,23 L20,50 M7,31 L33,31 M20,50 L7,65 M20,50 L33,65 " fill="none" filter="url(#fjdat1mr0dn9m)" style="stroke:#A80036;stroke-width:2.0;"></path><rect fill="#FEFECE" filter="url(#fjdat1mr0dn9m)" height="30.2969" style="stroke:#A80036;stroke-width:1.5;" width="51" x="80.5" y="53"></rect><text fill="#000000" font-family="sans-serif" font-size="14" lengthAdjust="spacingAndGlyphs" textLength="37" x="87.5" y="72.9951">Code</text><rect fill="#FEFECE" filter="url(#fjdat1mr0dn9m)" height="30.2969" style="stroke:#A80036;stroke-width:1.5;" width="58" x="165" y="53"></rect><text fill="#000000" font-family="sans-serif" font-size="14" lengthAdjust="spacingAndGlyphs" textLength="44" x="172" y="72.9951">Cache</text><rect fill="#FEFECE" filter="url(#fjdat1mr0dn9m)" height="30.2969" style="stroke:#A80036;stroke-width:1.5;" width="86" x="239" y="53"></rect><text fill="#000000" font-family="sans-serif" font-size="14" lengthAdjust="spacingAndGlyphs" textLength="72" x="246" y="72.9951">Datastore</text><rect fill="#FFFFFF" filter="url(#fjdat1mr0dn9m)" height="109.3984" style="stroke:#A80036;stroke-width:1.0;" width="10" x="15" y="98.2969"></rect><rect fill="#FFFFFF" filter="url(#fjdat1mr0dn9m)" height="88.2656" style="stroke:#A80036;stroke-width:1.0;" width="10" x="103" y="119.4297"></rect><rect fill="#FFFFFF" filter="url(#fjdat1mr0dn9m)" height="59.1328" style="stroke:#A80036;stroke-width:1.0;" width="10" x="191" y="148.5625"></rect><rect fill="#FFFFFF" filter="url(#fjdat1mr0dn9m)" height="30" style="stroke:#A80036;stroke-width:1.0;" width="10" x="279" y="177.6953"></rect><polygon fill="#A80036" points="91,115.4297,101,119.4297,91,123.4297,95,119.4297" style="stroke:#A80036;stroke-width:1.0;"></polygon><line style="stroke:#A80036;stroke-width:1.0;" x1="25" x2="97" y1="119.4297" y2="119.4297"></line><text fill="#000000" font-family="sans-serif" font-size="13" lengthAdjust="spacingAndGlyphs" textLength="59" x="32" y="114.3638">set value</text><polygon fill="#A80036" points="179,144.5625,189,148.5625,179,152.5625,183,148.5625" style="stroke:#A80036;stroke-width:1.0;"></polygon><line style="stroke:#A80036;stroke-width:1.0;" x1="113" x2="185" y1="148.5625" y2="148.5625"></line><text fill="#000000" font-family="sans-serif" font-size="13" lengthAdjust="spacingAndGlyphs" textLength="59" x="120" y="143.4966">set value</text><polygon fill="#A80036" points="267,173.6953,277,177.6953,267,181.6953,271,177.6953" style="stroke:#A80036;stroke-width:1.0;"></polygon><line style="stroke:#A80036;stroke-width:1.0;" x1="201" x2="273" y1="177.6953" y2="177.6953"></line><text fill="#000000" font-family="sans-serif" font-size="13" lengthAdjust="spacingAndGlyphs" textLength="59" x="208" y="172.6294">set value</text><!--MD5=[e99f9a797aa681e91fda11e16674346a] @startuml actor " " as user participant Code participant Cache participant Datastore activate user user -> Code : set value activate Code Code -> Cache : set value activate Cache Cache -> Datastore : set value activate Datastore deactivate Datastore deactivate Cache deactivate Code deactivate user hide footbox @enduml PlantUML version 1.2020.21beta3(Unknown compile time) (GPL source distribution) Java Runtime: Java(TM) SE Runtime Environment JVM: Java HotSpot(TM) 64-Bit Server VM Default Encoding: UTF-8 Language: en Country: US --></g></svg> 